<?xml version="1.0" standalone="no"?>
<!DOCTYPE svg PUBLIC "-//W3C//DTD SVG 20010904//EN"
 "http://www.w3.org/TR/2001/REC-SVG-20010904/DTD/svg10.dtd">
<svg version="1.0" xmlns="http://www.w3.org/2000/svg"
 width="700.000000pt" height="700.000000pt" viewBox="0 0 700.000000 700.000000"
 preserveAspectRatio="xMidYMid meet">
<metadata>
Created by potrace 1.14, written by Peter Selinger 2001-2017
</metadata>
<g transform="translate(0.000000,700.000000) scale(0.100000,-0.100000)"
fill="#000000" stroke="none">
<path d="M642 5754 c-124 -25 -219 -102 -280 -228 -120 -247 -74 -525 123
-735 147 -156 338 -264 635 -359 128 -41 197 -60 565 -158 391 -103 645 -201
792 -305 132 -94 264 -230 438 -453 39 -48 77 -98 87 -109 l16 -21 21 24 c11
14 20 28 21 32 1 19 -219 355 -303 462 -266 344 -646 586 -1252 800 -104 37
-199 71 -210 75 -11 5 -54 21 -95 36 -192 71 -284 127 -397 240 -165 165 -190
308 -75 431 35 39 84 65 126 68 98 8 240 -127 291 -277 10 -31 22 -57 26 -57
13 0 22 88 15 154 -9 96 -55 207 -113 276 -70 84 -281 134 -431 104z"/>
<path d="M6116 5747 c-98 -25 -163 -55 -190 -88 -32 -38 -74 -124 -92 -190
-31 -114 -28 -249 5 -249 4 0 13 22 19 49 19 83 53 143 115 203 114 112 224
110 321 -3 91 -107 64 -245 -78 -391 -132 -136 -234 -191 -601 -323 -340 -122
-430 -159 -600 -245 -131 -66 -312 -175 -371 -223 -10 -8 -53 -42 -94 -75
-184 -147 -386 -396 -559 -689 -37 -63 -41 -74 -30 -95 6 -13 13 -25 15 -27 5
-5 22 14 134 154 240 299 435 457 683 554 40 15 81 32 92 36 11 4 25 9 30 11
174 55 304 95 320 99 26 5 290 75 433 114 581 159 839 317 972 596 61 129 79
295 46 421 -80 304 -287 435 -570 361z"/>
<path d="M2443 5285 c2 -5 27 -16 56 -25 98 -28 145 -97 241 -355 39 -104 75
-199 80 -210 4 -11 13 -36 20 -55 7 -19 18 -48 25 -65 7 -16 25 -64 40 -105
14 -41 31 -84 35 -95 5 -11 45 -116 89 -234 76 -202 96 -240 113 -223 4 4 84
189 177 411 136 324 171 400 179 385 5 -11 62 -165 127 -344 149 -416 156
-433 169 -447 16 -18 29 -4 55 57 48 115 100 237 121 285 10 22 77 180 150
350 169 397 167 393 192 440 47 88 89 146 129 175 23 16 48 30 55 30 17 0 64
21 64 29 0 3 -113 6 -250 6 -178 0 -250 -3 -250 -11 0 -6 17 -14 39 -17 58 -7
108 -35 131 -73 18 -28 19 -36 8 -56 -7 -13 -13 -25 -13 -28 -1 -3 -5 -25 -9
-50 -6 -35 -238 -638 -319 -829 l-14 -34 -21 59 c-24 67 -128 339 -141 369
-13 27 -146 379 -165 435 -20 57 -20 119 -1 146 18 26 72 53 127 62 23 4 43
12 45 17 2 6 -108 10 -307 10 -170 0 -310 -3 -310 -7 0 -4 17 -10 38 -14 113
-21 167 -82 249 -284 l62 -153 -132 -318 c-72 -174 -135 -312 -138 -306 -4 7
-64 165 -133 352 -70 187 -136 363 -146 390 -80 209 -56 293 88 314 25 3 47
11 49 16 2 7 -103 10 -302 10 -194 0 -304 -4 -302 -10z"/>
<path d="M6956 4178 c-39 -56 -133 -139 -190 -167 -65 -32 -154 -56 -253 -69
-127 -16 -522 -7 -718 16 -79 9 -432 9 -515 0 -403 -47 -768 -191 -1065 -422
-79 -61 -173 -155 -182 -182 -2 -5 7 -22 20 -37 21 -27 23 -28 42 -10 11 10
49 41 85 68 35 28 73 57 83 66 10 9 55 37 100 63 124 70 269 112 447 131 53 5
295 6 360 1 25 -2 88 -7 140 -11 52 -3 113 -8 135 -10 204 -22 679 -23 790 -1
11 2 43 7 70 10 286 38 512 144 605 286 71 107 111 251 77 278 -13 11 -18 9
-31 -10z"/>
<path d="M5 4138 c13 -102 71 -230 135 -296 91 -96 283 -174 515 -212 166 -26
281 -34 520 -34 183 0 438 10 485 19 77 15 479 23 555 11 16 -3 53 -8 80 -12
133 -17 306 -86 415 -164 30 -22 94 -67 142 -100 l86 -59 17 25 c16 25 16 27
-11 65 -45 65 -156 163 -271 239 -261 173 -584 292 -913 335 -173 23 -478 23
-596 1 -11 -2 -64 -7 -119 -11 -55 -4 -109 -9 -120 -11 -30 -7 -365 -6 -405 0
-19 3 -51 8 -70 10 -70 10 -126 25 -187 52 -68 29 -153 93 -200 149 -51 62
-66 60 -58 -7z"/>
<path d="M6715 3574 c-11 -3 -35 -18 -54 -33 -30 -24 -35 -35 -39 -83 -4 -47
1 -68 33 -144 84 -203 94 -234 100 -295 7 -77 -10 -113 -76 -154 -154 -98
-329 -70 -603 94 -303 181 -677 331 -951 380 -132 24 -357 32 -500 17 -77 -7
-112 -12 -225 -33 -104 -18 -372 -101 -391 -120 -6 -6 -2 -19 11 -33 19 -22
22 -22 92 -11 128 20 142 21 230 29 111 10 242 4 290 -13 7 -2 24 -6 38 -9
107 -18 319 -81 415 -122 17 -7 59 -25 95 -39 110 -45 277 -132 465 -243 358
-210 561 -285 770 -285 106 0 184 20 270 68 137 76 194 192 193 390 -1 88 -8
140 -42 296 -20 94 -9 144 41 187 21 19 50 36 66 39 53 11 27 46 -64 87 -55
26 -126 38 -164 30z"/>
<path d="M163 3555 c-57 -17 -133 -63 -133 -79 0 -7 20 -19 44 -26 101 -28
122 -106 82 -305 -26 -133 -28 -147 -31 -235 -4 -144 27 -227 117 -311 99 -93
226 -134 383 -126 209 10 369 71 703 266 390 227 634 335 902 400 47 11 103
23 125 26 22 4 57 10 79 15 49 11 227 11 286 0 25 -4 63 -10 85 -14 22 -3 64
-10 94 -16 50 -9 56 -8 78 12 19 18 21 24 11 34 -26 25 -306 113 -414 130 -21
3 -41 7 -45 9 -28 18 -380 26 -519 13 -305 -29 -737 -185 -1067 -385 -183
-110 -293 -153 -408 -158 -91 -4 -145 10 -213 57 -60 41 -75 69 -76 136 0 62
20 130 67 232 65 143 83 231 58 279 -30 56 -117 75 -208 46z"/>
<path d="M3189 3339 c-47 -73 -51 -139 -14 -208 16 -28 37 -59 47 -68 19 -17
22 -16 84 52 36 39 73 82 84 96 l20 27 -94 76 -94 75 -33 -50z"/>
<path d="M3709 3335 c-41 -30 -84 -62 -96 -71 -28 -21 -28 -23 0 -54 12 -14
45 -52 72 -85 79 -95 71 -91 105 -54 70 78 82 163 36 262 -15 31 -30 57 -35
57 -4 0 -41 -25 -82 -55z"/>
<path d="M3898 2982 c19 -23 41 -42 50 -42 65 -2 239 -36 317 -62 144 -48 288
-136 400 -245 108 -105 165 -182 307 -412 112 -181 154 -238 238 -322 108
-109 244 -185 390 -220 61 -14 223 -17 315 -6 105 12 319 79 313 98 -2 5 -53
11 -113 13 -81 3 -125 10 -166 25 -143 54 -300 206 -602 578 -267 330 -455
455 -782 522 -55 11 -128 25 -162 31 -35 5 -75 12 -90 15 -64 11 -151 25 -198
31 -27 3 -61 7 -75 9 -14 2 -54 7 -90 10 -36 4 -69 10 -75 13 -5 4 5 -13 23
-36z"/>
<path d="M3048 3005 c-2 -2 -32 -5 -68 -9 -77 -7 -102 -11 -195 -26 -38 -7
-83 -14 -100 -17 -80 -13 -318 -65 -385 -83 -249 -70 -449 -224 -690 -530
-186 -237 -393 -452 -485 -504 -73 -40 -144 -57 -251 -59 -57 -1 -99 -6 -101
-12 -9 -29 256 -93 408 -99 217 -9 408 55 558 189 107 95 167 172 291 372 160
257 283 400 432 505 163 116 336 178 538 194 84 7 83 6 108 48 l21 36 -39 -2
c-22 -1 -41 -2 -42 -3z"/>
<path d="M3365 2646 c-69 -16 -214 -81 -265 -120 -65 -49 -159 -146 -193 -199
-98 -151 -118 -210 -121 -363 -3 -149 14 -226 77 -348 88 -172 227 -288 422
-351 102 -33 264 -40 405 -18 77 12 361 101 378 118 3 2 6 75 7 162 1 87 6
169 11 183 18 52 59 90 102 97 15 2 36 6 47 8 11 2 26 4 33 4 7 1 10 6 7 11
-4 6 -115 10 -301 10 -189 0 -294 -4 -294 -10 0 -5 6 -10 13 -11 6 0 19 -2 27
-4 8 -1 30 -5 48 -8 41 -7 77 -29 99 -63 13 -21 17 -54 18 -172 1 -81 -2 -155
-7 -164 -9 -19 -45 -40 -118 -72 -36 -15 -74 -20 -185 -22 -159 -4 -234 10
-294 54 -181 133 -266 335 -256 607 7 178 42 294 126 420 105 156 282 237 451
205 61 -12 171 -75 228 -132 48 -48 138 -181 166 -245 31 -71 50 -52 35 34 -6
32 -13 81 -16 108 -3 28 -8 61 -12 75 -3 14 -7 54 -8 88 -2 35 -5 65 -7 66 -2
2 -52 16 -113 31 -93 23 -136 28 -280 31 -120 3 -188 0 -230 -10z"/>
</g>
</svg>
