<?xml version="1.0" encoding="UTF-8" standalone="no"?>
<svg
   xmlns:dc="http://purl.org/dc/elements/1.1/"
   xmlns:cc="http://creativecommons.org/ns#"
   xmlns:rdf="http://www.w3.org/1999/02/22-rdf-syntax-ns#"
   xmlns:svg="http://www.w3.org/2000/svg"
   xmlns="http://www.w3.org/2000/svg"
   xmlns:sodipodi="http://sodipodi.sourceforge.net/DTD/sodipodi-0.dtd"
   xmlns:inkscape="http://www.inkscape.org/namespaces/inkscape"
   width="200"
   height="200"
   viewBox="0 0 200 200"
   version="1.1"
   xml:space="preserve"
   style="clip-rule:evenodd;fill-rule:evenodd"
   id="svg82"
   sodipodi:docname="wg-favicon.svg"
   inkscape:version="1.0.1 (3bc2e813f5, 2020-09-07)"><metadata
   id="metadata88"><rdf:RDF><cc:Work
       rdf:about=""><dc:format>image/svg+xml</dc:format><dc:type
         rdf:resource="http://purl.org/dc/dcmitype/StillImage" /><dc:title></dc:title></cc:Work></rdf:RDF></metadata><defs
   id="defs86">
        
    
            
            
            
            
            
            
            
            
            
            
            
            
            
            
            
            
            
            
            
        
                
            
                
            
                
            
                
            
                
            
                
            
                
            
                
            
                
            
                
            
                
            
                
            
                
            
                
            
                
            
                
            
                
            
                
            
                
            </defs><sodipodi:namedview
   pagecolor="#ffffff"
   bordercolor="#666666"
   borderopacity="1"
   objecttolerance="10"
   gridtolerance="10"
   guidetolerance="10"
   inkscape:pageopacity="0"
   inkscape:pageshadow="2"
   inkscape:window-width="1920"
   inkscape:window-height="1013"
   id="namedview84"
   showgrid="false"
   inkscape:zoom="2.3709677"
   inkscape:cx="226"
   inkscape:cy="110.43311"
   inkscape:window-x="-9"
   inkscape:window-y="-9"
   inkscape:window-maximized="1"
   inkscape:current-layer="svg82" />
    <g
   id="g1013"
   transform="matrix(0.99454198,0,0,1,-123.56017,35.176581)"><path
     d="m 227.24304,72.140794 5.87308,-4.330204 c 2.71065,4.020903 2.71065,6.804606 -0.90355,10.206908 z m 8.13196,6.495305 c 2.25887,0.3093 9.48728,0.927901 21.68521,3.402303 10.84261,2.474402 16.26392,8.660407 23.49232,17.939414 3.61421,4.330204 8.13196,9.279004 10.84261,11.134814 4.51775,3.4023 8.58373,2.7837 11.74616,2.7837 v 0.6186 c -9.93906,4.0209 -22.13699,5.2581 -31.62427,-6.49531 -3.61421,-4.6395 -4.96953,-8.351104 -9.93906,-14.846409 -9.48729,-12.06271 -21.68522,-12.06271 -24.39587,-12.37201 z m 2.25887,-12.37201 c 1.35533,-2.165102 7.68018,-13.918511 16.71569,-21.341717 18.07102,-14.846412 36.59381,-15.465013 45.62931,-22.578919 8.58373,-6.804605 7.22841,-11.444109 4.96953,-13.9185108 -1.35532,-1.8558014 -4.51775,-3.711603 -8.13195,-0.9279007 -3.16243,2.474402 -4.06598,4.9488035 -4.51776,8.0418065 h -0.90355 c -0.90355,-4.948804 1.35533,-10.8255088 3.6142,-12.9906105 2.71066,-1.8558015 12.64971,-5.2581043 18.07102,1.5465013 5.4213,7.1139052 5.87308,18.2487142 -4.51776,26.9091212 -13.55326,10.516209 -42.46688,10.825509 -56.02014,21.651018 -7.22841,5.876705 -10.84261,11.753409 -14.00504,15.155712 z m 1.35533,7.113906 c 11.74616,-4.639504 21.23344,-5.258105 29.81717,-4.330204 9.03551,0.927901 21.68522,6.186005 29.81718,11.134809 11.29438,7.113906 15.81213,4.020904 18.52279,2.165102 1.35532,-1.237201 2.25887,-3.093002 -0.45178,-9.279008 -2.71065,-5.258104 -3.16243,-8.041806 -0.90355,-9.588307 2.25888,-2.165102 6.77663,0 8.58373,1.546501 v 0.927901 c -0.90355,0 -1.8071,0.3093 -2.25887,0.9279 -2.25888,1.546502 -2.25888,3.402303 -0.90356,8.041807 1.35533,7.423206 0.90356,12.68131 -3.16242,16.083613 -6.32486,4.948804 -15.81214,4.330204 -29.81718,-4.020903 -14.00503,-8.660407 -23.04054,-11.44411 -32.9796,-13.299911 -4.96953,-0.618601 -13.10148,0.927901 -14.90858,1.237201 z m 0.90355,-4.330204 c 1.35533,-1.546501 2.71065,-3.402303 4.96953,-4.948804 13.55326,-10.825508 31.1725,-13.918511 45.62931,-12.37201 20.78167,2.165102 27.10652,-0.3093 30.26895,-2.783702 2.25888,-1.855802 3.16243,-3.093003 3.6142,-4.020903 l 0.90355,0.3093 c 0.45178,2.783702 -1.8071,8.351107 -4.96953,10.516209 -4.96952,4.330203 -16.71568,8.041806 -42.46688,5.567404 -11.29438,-0.927901 -22.58877,-1.546501 -31.62427,5.567404 -0.90356,0.927901 -2.71066,1.855802 -4.96953,4.020904 l -1.35533,-1.855802"
     style="fill:#c9b47e;fill-rule:nonzero;stroke-width:373.81"
     id="path2" /><path
     d="m 208.72025,70.810542 c -2.71065,-1.855801 -4.51775,-2.783702 -5.4213,-3.711603 -9.03551,-7.113905 -19.87812,-6.495305 -31.1725,-5.567404 -26.20297,2.165102 -37.94913,-1.546501 -42.91866,-5.567404 -3.16243,-2.474402 -4.96953,-7.732507 -4.96953,-10.825509 h 0.90355 c 0.45177,0.9279 1.35532,2.165101 3.6142,3.711603 3.16243,2.783702 9.93906,5.258104 30.26895,2.783702 14.45681,-1.546501 32.07605,1.546501 46.08109,12.68131 1.8071,1.546502 3.16242,3.093003 4.51775,4.948804 z m 0.45178,4.330204 c -1.80711,-0.3093 -9.48729,-2.165102 -14.45682,-1.237201 -10.39083,1.546501 -18.97456,4.639504 -33.43137,13.299911 -13.55326,8.351107 -23.49232,8.969707 -29.81718,3.711603 -4.06597,-3.402303 -4.51775,-8.351107 -2.71065,-16.083613 0.90355,-4.330204 0.90355,-6.495306 -0.90355,-8.041807 -0.90355,-0.3093 -1.8071,-0.9279 -2.71065,-0.9279 v -0.618601 c 1.8071,-1.546501 6.32485,-3.711603 9.03551,-1.546501 1.8071,1.546501 1.35532,4.330203 -1.35533,9.588307 -2.71065,6.186006 -1.35533,8.041807 -0.45178,8.969708 2.71066,2.165102 7.22841,5.258104 18.52279,-1.855802 8.13196,-4.948804 20.78167,-10.206908 30.26895,-11.134809 8.58374,-0.927901 17.61924,-0.6186 29.3654,4.330204 z m 1.8071,-7.113906 C 207.8167,64.624537 204.2025,58.438533 196.97409,52.561828 183.42083,41.736319 154.50721,41.736319 141.40572,30.91081 130.56311,22.559703 131.01489,11.115594 136.43619,4.0016885 c 5.42131,-6.4953053 15.36036,-3.40230275 18.07102,-1.237201 2.25887,2.1651017 4.96953,8.0418065 3.6142,12.6813105 l -0.45178,0.3093 c -0.90355,-3.093003 -1.8071,-5.567405 -4.96952,-8.0418065 -3.61421,-3.0930025 -6.32486,-1.237201 -8.13196,0.9279007 -1.8071,2.4744018 -3.6142,6.8046058 4.96953,13.9185108 9.03551,7.113906 27.5583,7.732507 45.62931,22.269618 9.48728,7.423207 15.36036,19.485916 17.16746,21.651018 z m 1.8071,12.990611 c -3.16243,0.3093 -14.90859,0 -24.84765,12.37201 -4.96953,6.186005 -6.32485,10.206909 -9.93905,14.537109 -9.48729,11.75341 -21.23345,10.51621 -31.62428,6.80461 l 0.45178,-0.9279 c 2.71065,0.3093 6.77663,0.9279 11.29438,-2.4744 2.71065,-2.16511 7.22841,-6.80461 10.84261,-11.444114 7.2284,-9.279007 12.64971,-15.155712 23.49232,-17.630114 12.64971,-2.783702 19.42634,-3.402303 21.68521,-3.402303 z m 4.51775,-3.093003 c -3.16243,-3.402303 -3.6142,-6.186005 -0.45177,-9.897608 l 5.4213,4.330204 -4.96953,5.567404"
     style="fill:#c9b47e;fill-rule:nonzero;stroke-width:373.81"
     id="path6" /><path
     d="m 194.26344,13.342697 c 1.35532,0 2.71065,0.3093 4.06598,0.3093 1.35532,0 2.71065,0 4.06598,0 1.8071,0 3.16242,0 4.96952,0 1.35533,0 3.16243,-0.3093 4.51776,-0.3093 v 0.618601 c -0.45178,0.3093 -1.35533,0.3093 -1.8071,0.3093 -0.90355,0.3093 -1.35533,0.3093 -1.80711,0.618601 -0.90355,0.3093 -1.35532,0.9279 -1.35532,1.2372 -0.45178,0.618601 -0.45178,1.237202 -0.45178,2.165102 0,0.618601 0,1.237201 0.45178,1.855802 0,0.9279 0.45177,1.855801 0.90355,3.093002 l 8.13196,21.651018 7.68018,-18.248715 -3.16243,-7.732506 c -1.35533,-3.093003 -3.6142,-4.639504 -6.77663,-4.948804 v -0.618601 c 1.35533,0 2.71065,0.3093 4.06598,0.3093 1.35532,0 2.71065,0 3.6142,0 1.8071,0 3.6142,0 4.96953,0 1.8071,0 3.6142,-0.3093 4.96953,-0.3093 v 0.618601 c -0.45178,0.3093 -0.90355,0.3093 -1.8071,0.3093 -0.45178,0.3093 -0.90355,0.3093 -1.8071,0.618601 -0.45178,0.3093 -0.90356,0.6186 -1.35533,1.2372 -0.45178,0.309301 -0.45178,0.927901 -0.45178,1.546502 0,0.3093 0,0.9279 0,1.546501 0.45178,0.3093 0.45178,1.237201 0.90355,2.165102 l 9.03551,23.506819 9.03551,-22.578918 0.90355,-4.020904 c 0.45178,-0.3093 0.45178,-0.6186 0.45178,-0.9279 0,-0.618601 -0.45178,-0.927901 -0.90356,-1.546502 0,-0.3093 -0.45177,-0.6186 -1.35532,-0.9279 -0.45178,-0.309301 -0.90355,-0.309301 -1.8071,-0.618601 -0.45178,0 -0.90355,0 -1.35533,-0.3093 v -0.618601 c 1.35533,0 2.71065,0.3093 3.6142,0.3093 1.35533,0 2.71066,0 4.06598,0 0.90355,0 2.25888,0 3.6142,0 0.90356,0 2.25888,-0.3093 3.16243,-0.3093 v 0.618601 c -0.90355,0.3093 -2.25887,0.6186 -2.71065,0.927901 -0.90355,0.6186 -1.8071,1.2372 -2.25888,1.855801 -0.45177,0.618601 -0.90355,1.546501 -1.35532,2.165102 -0.45178,0.927901 -0.90355,1.546501 -1.35533,2.474402 l -13.55326,31.548625 h -0.90355 l -8.58373,-23.506819 -9.93906,23.506819 h -0.90355 L 201.49184,20.765903 c -0.45177,-1.546501 -1.35532,-2.783702 -1.8071,-3.402302 -0.45177,-0.927901 -1.35532,-1.546502 -1.8071,-2.165102 -0.45177,-0.3093 -1.35532,-0.618601 -1.8071,-0.618601 -0.45178,-0.3093 -1.35533,-0.3093 -1.8071,-0.6186 v -0.618601"
     style="fill:#a08032;fill-rule:nonzero;stroke-width:373.81"
     id="path10" /><path
     d="m 239.44097,102.39023 c -0.45177,-1.5465 -1.35532,-3.093 -2.25887,-4.330201 -0.90355,-1.546502 -1.8071,-2.783703 -3.16243,-4.020904 -0.90355,-0.9279 -2.25888,-1.855801 -3.6142,-2.474402 -1.35533,-0.9279 -3.16243,-1.237201 -4.96953,-1.237201 -2.25888,0 -4.51776,0.618601 -6.32486,1.855802 -1.8071,0.927901 -3.16242,2.474402 -4.51775,4.330203 -0.90355,1.855802 -2.25888,3.711603 -2.71065,5.876703 -0.45178,2.1651 -0.90355,4.63951 -0.90355,6.80461 0,2.4744 0.45177,4.9488 0.90355,7.1139 0.45177,2.16511 1.8071,4.02091 2.71065,5.87671 1.35533,1.5465 2.71065,2.7837 4.51775,4.0209 1.8071,0.9279 4.06598,1.2372 6.32486,1.2372 1.8071,0 3.6142,0 5.4213,-0.3093 1.8071,-0.6186 3.61421,-1.2372 4.96953,-2.4744 v -7.73251 c 0,-2.4744 -1.8071,-4.0209 -5.87308,-4.0209 v -0.6186 h 8.58373 c 1.35533,0 2.71066,0 4.06598,0 1.8071,0 3.16243,0 4.51776,0 v 0.6186 c -0.90355,0 -1.80711,0 -2.25888,0.3093 -0.90355,0 -1.35533,0.3093 -1.8071,0.6186 -0.45178,0.3093 -0.90355,0.9279 -1.35533,1.5465 0,0.6186 -0.45177,1.5465 -0.45177,2.4744 v 8.04181 c -2.71066,0.9279 -5.42131,1.8558 -8.13196,2.7837 -2.71065,0.6186 -4.96953,0.9279 -7.68018,0.9279 -2.71065,0 -5.42131,-0.3093 -7.68018,-1.2372 -2.71065,-0.9279 -4.96953,-2.1651 -6.77663,-4.0209 -2.25888,-1.5465 -3.61421,-3.7116 -4.96953,-6.49531 -1.35533,-2.4744 -1.8071,-5.2581 -1.8071,-8.6604 0,-3.093 0.45177,-5.56741 1.8071,-8.04181 1.35532,-2.474401 2.71065,-4.639503 4.96953,-6.495304 1.8071,-1.855802 4.06598,-3.402303 6.77663,-4.330204 2.25887,-1.237201 4.96953,-1.546501 7.68018,-1.546501 1.8071,0 3.16243,0 4.51775,0 1.35533,0.3093 2.25888,0.3093 3.61421,0.618601 0.90355,0.3093 1.8071,0.3093 2.71065,0.6186 0.90355,0.3093 1.8071,0.618601 2.71065,0.618601 0,0.6186 0,1.546501 0,2.783702 0,0.927901 0.45177,1.855801 0.45177,3.093002 l 0.90356,5.876703 h -0.90356"
     style="fill:#a08032;fill-rule:nonzero;stroke-width:373.81"
     id="path14" /></g>
</svg>
