<?xml version="1.0" encoding="UTF-8" standalone="no"?>
<!DOCTYPE svg PUBLIC "-//W3C//DTD SVG 1.1//EN" "http://www.w3.org/Graphics/SVG/1.1/DTD/svg11.dtd">
<svg width="100%" height="100%" viewBox="0 0 452 310" version="1.1" xmlns="http://www.w3.org/2000/svg" xmlns:xlink="http://www.w3.org/1999/xlink" xml:space="preserve" xmlns:serif="http://www.serif.com/" style="fill-rule:evenodd;clip-rule:evenodd;">
    <g transform="matrix(1,0,0,1,-97.4149,-54.1714)">
        <g transform="matrix(4.16667,0,0,4.16667,5.01486,-7.0315)">
            <g transform="matrix(108.426,0,0,74.232,22.176,-31.4659)">
                <path d="M0.503,0.855L0.516,0.841C0.522,0.854 0.522,0.863 0.514,0.874L0.503,0.855ZM0.521,0.876C0.526,0.877 0.542,0.879 0.569,0.887C0.593,0.895 0.605,0.915 0.621,0.945C0.629,0.959 0.639,0.975 0.645,0.981C0.655,0.992 0.664,0.99 0.671,0.99L0.671,0.992C0.649,1.005 0.622,1.009 0.601,0.971C0.593,0.956 0.59,0.944 0.579,0.923C0.558,0.884 0.531,0.884 0.525,0.883L0.521,0.876ZM0.526,0.836C0.529,0.829 0.543,0.791 0.563,0.767C0.603,0.719 0.644,0.717 0.664,0.694C0.683,0.672 0.68,0.657 0.675,0.649C0.672,0.643 0.665,0.637 0.657,0.646C0.65,0.654 0.648,0.662 0.647,0.672L0.645,0.672C0.643,0.656 0.648,0.637 0.653,0.63C0.659,0.624 0.681,0.613 0.693,0.635C0.705,0.658 0.706,0.694 0.683,0.722C0.653,0.756 0.589,0.757 0.559,0.792C0.543,0.811 0.535,0.83 0.528,0.841L0.526,0.836ZM0.529,0.859C0.555,0.844 0.576,0.842 0.595,0.845C0.615,0.848 0.643,0.865 0.661,0.881C0.686,0.904 0.696,0.894 0.702,0.888C0.705,0.884 0.707,0.878 0.701,0.858C0.695,0.841 0.694,0.832 0.699,0.827C0.704,0.82 0.714,0.827 0.718,0.832L0.718,0.835C0.716,0.835 0.714,0.836 0.713,0.838C0.708,0.843 0.708,0.849 0.711,0.864C0.714,0.888 0.713,0.905 0.704,0.916C0.69,0.932 0.669,0.93 0.638,0.903C0.607,0.875 0.587,0.866 0.565,0.86C0.554,0.858 0.536,0.863 0.532,0.864L0.529,0.859ZM0.531,0.845C0.534,0.84 0.537,0.834 0.542,0.829C0.572,0.794 0.611,0.784 0.643,0.789C0.689,0.796 0.703,0.788 0.71,0.78C0.715,0.774 0.717,0.77 0.718,0.767L0.72,0.768C0.721,0.777 0.716,0.795 0.709,0.802C0.698,0.816 0.672,0.828 0.615,0.82C0.59,0.817 0.565,0.815 0.545,0.838C0.543,0.841 0.539,0.844 0.534,0.851L0.531,0.845" style="fill:rgb(201,180,126);fill-rule:nonzero;"/>
            </g>
            <g transform="matrix(108.426,0,0,74.232,22.176,-31.414)">
                <path d="M0.462,0.85C0.456,0.844 0.452,0.841 0.45,0.838C0.43,0.815 0.406,0.817 0.381,0.82C0.323,0.827 0.297,0.815 0.286,0.802C0.279,0.794 0.275,0.777 0.275,0.767L0.277,0.767C0.278,0.77 0.28,0.774 0.285,0.779C0.292,0.788 0.307,0.796 0.352,0.788C0.384,0.783 0.423,0.793 0.454,0.829C0.458,0.834 0.461,0.839 0.464,0.845L0.462,0.85ZM0.463,0.864C0.459,0.863 0.442,0.857 0.431,0.86C0.408,0.865 0.389,0.875 0.357,0.903C0.327,0.93 0.305,0.932 0.291,0.915C0.282,0.904 0.281,0.888 0.285,0.863C0.287,0.849 0.287,0.842 0.283,0.837C0.281,0.836 0.279,0.834 0.277,0.834L0.277,0.832C0.281,0.827 0.291,0.82 0.297,0.827C0.301,0.832 0.3,0.841 0.294,0.858C0.288,0.878 0.291,0.884 0.293,0.887C0.299,0.894 0.309,0.904 0.334,0.881C0.352,0.865 0.38,0.848 0.401,0.845C0.42,0.842 0.44,0.843 0.466,0.859L0.463,0.864ZM0.467,0.841C0.46,0.83 0.452,0.81 0.436,0.791C0.406,0.756 0.342,0.756 0.313,0.721C0.289,0.694 0.29,0.657 0.302,0.634C0.314,0.613 0.336,0.623 0.342,0.63C0.347,0.637 0.353,0.656 0.35,0.671L0.349,0.672C0.347,0.662 0.345,0.654 0.338,0.646C0.33,0.636 0.324,0.642 0.32,0.649C0.316,0.657 0.312,0.671 0.331,0.694C0.351,0.717 0.392,0.719 0.432,0.766C0.453,0.79 0.466,0.829 0.47,0.836L0.467,0.841ZM0.471,0.883C0.464,0.884 0.438,0.883 0.416,0.923C0.405,0.943 0.402,0.956 0.394,0.97C0.373,1.008 0.347,1.004 0.324,0.992L0.325,0.989C0.331,0.99 0.34,0.992 0.35,0.981C0.356,0.974 0.366,0.959 0.374,0.944C0.39,0.914 0.402,0.895 0.426,0.887C0.454,0.878 0.469,0.876 0.474,0.876L0.471,0.883ZM0.481,0.873C0.474,0.862 0.473,0.853 0.48,0.841L0.492,0.855L0.481,0.873" style="fill:rgb(201,180,126);fill-rule:nonzero;"/>
            </g>
            <g transform="matrix(108.426,0,0,74.232,22.176,-43.6474)">
                <path d="M0.43,0.829C0.433,0.829 0.436,0.83 0.439,0.83C0.442,0.83 0.445,0.83 0.448,0.83C0.452,0.83 0.455,0.83 0.459,0.83C0.462,0.83 0.466,0.829 0.469,0.829L0.469,0.831C0.468,0.832 0.466,0.832 0.465,0.832C0.463,0.833 0.462,0.833 0.461,0.834C0.459,0.835 0.458,0.837 0.458,0.838C0.457,0.84 0.457,0.842 0.457,0.845C0.457,0.847 0.457,0.849 0.458,0.851C0.458,0.854 0.459,0.857 0.46,0.861L0.478,0.931L0.495,0.872L0.488,0.847C0.485,0.837 0.48,0.832 0.473,0.831L0.473,0.829C0.476,0.829 0.479,0.83 0.482,0.83C0.485,0.83 0.488,0.83 0.49,0.83C0.494,0.83 0.498,0.83 0.501,0.83C0.505,0.83 0.509,0.829 0.512,0.829L0.512,0.831C0.511,0.832 0.51,0.832 0.508,0.832C0.507,0.833 0.506,0.833 0.504,0.834C0.503,0.835 0.502,0.836 0.501,0.838C0.5,0.839 0.5,0.841 0.5,0.843C0.5,0.844 0.5,0.846 0.5,0.848C0.501,0.849 0.501,0.852 0.502,0.855L0.522,0.931L0.542,0.858L0.544,0.845C0.545,0.844 0.545,0.843 0.545,0.842C0.545,0.84 0.544,0.839 0.543,0.837C0.543,0.836 0.542,0.835 0.54,0.834C0.539,0.833 0.538,0.833 0.536,0.832C0.535,0.832 0.534,0.832 0.533,0.831L0.533,0.829C0.536,0.829 0.539,0.83 0.541,0.83C0.544,0.83 0.547,0.83 0.55,0.83C0.552,0.83 0.555,0.83 0.558,0.83C0.56,0.83 0.563,0.829 0.565,0.829L0.565,0.831C0.563,0.832 0.56,0.833 0.559,0.834C0.557,0.836 0.555,0.838 0.554,0.84C0.553,0.842 0.552,0.845 0.551,0.847C0.55,0.85 0.549,0.852 0.548,0.855L0.518,0.957L0.516,0.957L0.497,0.881L0.475,0.957L0.473,0.957L0.446,0.853C0.445,0.848 0.443,0.844 0.442,0.842C0.441,0.839 0.439,0.837 0.438,0.835C0.437,0.834 0.435,0.833 0.434,0.833C0.433,0.832 0.431,0.832 0.43,0.831L0.43,0.829" style="fill:rgb(160,128,50);fill-rule:nonzero;"/>
            </g>
            <g transform="matrix(108.426,0,0,74.232,22.176,-7.13268)">
                <path d="M0.53,0.625C0.529,0.62 0.527,0.615 0.525,0.611C0.523,0.606 0.521,0.602 0.518,0.598C0.516,0.595 0.513,0.592 0.51,0.59C0.507,0.587 0.503,0.586 0.499,0.586C0.494,0.586 0.489,0.588 0.485,0.592C0.481,0.595 0.478,0.6 0.475,0.606C0.473,0.612 0.47,0.618 0.469,0.625C0.468,0.632 0.467,0.64 0.467,0.647C0.467,0.655 0.468,0.663 0.469,0.67C0.47,0.677 0.473,0.683 0.475,0.689C0.478,0.694 0.481,0.698 0.485,0.702C0.489,0.705 0.494,0.706 0.499,0.706C0.503,0.706 0.507,0.706 0.511,0.705C0.515,0.703 0.519,0.701 0.522,0.697L0.522,0.672C0.522,0.664 0.518,0.659 0.509,0.659L0.509,0.657L0.528,0.657C0.531,0.657 0.534,0.657 0.537,0.657C0.541,0.657 0.544,0.657 0.547,0.657L0.547,0.659C0.545,0.659 0.543,0.659 0.542,0.66C0.54,0.66 0.539,0.661 0.538,0.662C0.537,0.663 0.536,0.665 0.535,0.667C0.535,0.669 0.534,0.672 0.534,0.675L0.534,0.701C0.528,0.704 0.522,0.707 0.516,0.71C0.51,0.712 0.505,0.713 0.499,0.713C0.493,0.713 0.487,0.712 0.482,0.709C0.476,0.706 0.471,0.702 0.467,0.696C0.462,0.691 0.459,0.684 0.456,0.675C0.453,0.667 0.452,0.658 0.452,0.647C0.452,0.637 0.453,0.629 0.456,0.621C0.459,0.613 0.462,0.606 0.467,0.6C0.471,0.594 0.476,0.589 0.482,0.586C0.487,0.582 0.493,0.581 0.499,0.581C0.503,0.581 0.506,0.581 0.509,0.581C0.512,0.582 0.514,0.582 0.517,0.583C0.519,0.584 0.521,0.584 0.523,0.585C0.525,0.586 0.527,0.587 0.529,0.587C0.529,0.589 0.529,0.592 0.529,0.596C0.529,0.599 0.53,0.602 0.53,0.606L0.532,0.625L0.53,0.625" style="fill:rgb(160,128,50);fill-rule:nonzero;"/>
            </g>
            <g transform="matrix(108.426,0,0,74.232,22.176,46.4406)">
                <path d="M0,0.215C0.004,0.216 0.007,0.216 0.011,0.216C0.014,0.216 0.017,0.216 0.021,0.216C0.025,0.216 0.029,0.216 0.032,0.216C0.036,0.216 0.04,0.216 0.044,0.215L0.044,0.218C0.042,0.218 0.04,0.219 0.039,0.219C0.037,0.22 0.036,0.22 0.034,0.221C0.033,0.223 0.032,0.224 0.031,0.226C0.03,0.228 0.03,0.23 0.03,0.233C0.03,0.235 0.03,0.237 0.031,0.24L0.054,0.329L0.072,0.263L0.065,0.236C0.062,0.225 0.056,0.219 0.048,0.218L0.048,0.215C0.051,0.216 0.055,0.216 0.058,0.216C0.061,0.216 0.064,0.216 0.067,0.216C0.071,0.216 0.076,0.216 0.08,0.216C0.084,0.216 0.088,0.216 0.092,0.215L0.092,0.218C0.09,0.218 0.089,0.219 0.087,0.219C0.086,0.219 0.084,0.22 0.083,0.221C0.082,0.222 0.08,0.223 0.079,0.225C0.078,0.227 0.078,0.229 0.078,0.231C0.078,0.232 0.078,0.234 0.079,0.236C0.079,0.238 0.08,0.241 0.081,0.245L0.102,0.329L0.125,0.247L0.127,0.238L0.127,0.23C0.127,0.228 0.127,0.226 0.126,0.225C0.125,0.223 0.124,0.222 0.123,0.221C0.121,0.22 0.12,0.22 0.118,0.219C0.117,0.219 0.116,0.218 0.114,0.218L0.114,0.215C0.118,0.216 0.121,0.216 0.124,0.216C0.127,0.216 0.13,0.216 0.133,0.216C0.136,0.216 0.139,0.216 0.142,0.216C0.145,0.216 0.147,0.216 0.15,0.215L0.15,0.218C0.147,0.219 0.145,0.22 0.143,0.221C0.141,0.223 0.139,0.225 0.138,0.228C0.136,0.23 0.135,0.233 0.134,0.236C0.133,0.238 0.132,0.241 0.132,0.244L0.098,0.357L0.096,0.357L0.075,0.272L0.05,0.357L0.048,0.357L0.018,0.242C0.017,0.237 0.015,0.232 0.014,0.229C0.012,0.226 0.011,0.224 0.009,0.222C0.008,0.221 0.006,0.22 0.005,0.219C0.003,0.219 0.002,0.219 0,0.218L0,0.215" style="fill:rgb(160,128,50);fill-rule:nonzero;"/>
            </g>
            <g transform="matrix(108.426,0,0,74.232,22.176,47.7174)">
                <path d="M0.158,0.336C0.161,0.336 0.164,0.335 0.166,0.334C0.167,0.333 0.168,0.332 0.169,0.329C0.17,0.327 0.171,0.325 0.171,0.321C0.171,0.318 0.171,0.314 0.171,0.308L0.171,0.247C0.171,0.242 0.171,0.237 0.171,0.234C0.171,0.231 0.17,0.228 0.169,0.226C0.168,0.224 0.167,0.222 0.165,0.221C0.164,0.22 0.161,0.22 0.158,0.219L0.158,0.217C0.162,0.217 0.165,0.217 0.169,0.217C0.172,0.218 0.175,0.218 0.179,0.218C0.182,0.218 0.184,0.218 0.187,0.217C0.19,0.217 0.193,0.217 0.195,0.217L0.195,0.219C0.192,0.22 0.19,0.22 0.188,0.221C0.187,0.222 0.185,0.224 0.185,0.226C0.184,0.228 0.183,0.231 0.183,0.234C0.183,0.237 0.183,0.242 0.183,0.247L0.183,0.308C0.183,0.314 0.183,0.318 0.183,0.321C0.183,0.325 0.184,0.327 0.185,0.329C0.186,0.332 0.187,0.333 0.189,0.334C0.19,0.335 0.193,0.336 0.196,0.336L0.196,0.338C0.193,0.338 0.19,0.338 0.186,0.338C0.183,0.338 0.18,0.338 0.177,0.338C0.174,0.338 0.171,0.338 0.168,0.338C0.165,0.338 0.161,0.338 0.158,0.338L0.158,0.336" style="fill:rgb(160,128,50);fill-rule:nonzero;"/>
            </g>
            <g transform="matrix(108.426,0,0,74.232,22.176,47.7174)">
                <path d="M0.26,0.219C0.256,0.22 0.253,0.221 0.25,0.222C0.248,0.223 0.246,0.224 0.245,0.226C0.244,0.228 0.244,0.23 0.243,0.233C0.243,0.235 0.243,0.238 0.243,0.242L0.243,0.33C0.245,0.331 0.247,0.332 0.25,0.332C0.252,0.333 0.254,0.333 0.256,0.333C0.261,0.333 0.265,0.332 0.269,0.331C0.273,0.329 0.276,0.327 0.279,0.324C0.282,0.321 0.285,0.317 0.287,0.313C0.29,0.308 0.292,0.303 0.295,0.297L0.297,0.297L0.287,0.338C0.284,0.338 0.281,0.338 0.278,0.338C0.275,0.338 0.272,0.338 0.269,0.338L0.231,0.338L0.219,0.338L0.219,0.336C0.222,0.336 0.224,0.335 0.225,0.334C0.227,0.333 0.228,0.332 0.229,0.331C0.23,0.33 0.231,0.328 0.231,0.326C0.231,0.324 0.232,0.322 0.232,0.32L0.232,0.247C0.232,0.242 0.231,0.237 0.231,0.234C0.231,0.231 0.23,0.228 0.23,0.226C0.229,0.224 0.228,0.222 0.226,0.221C0.224,0.22 0.222,0.22 0.219,0.219L0.219,0.217C0.222,0.217 0.225,0.217 0.229,0.217C0.232,0.218 0.235,0.218 0.238,0.218C0.242,0.218 0.246,0.218 0.249,0.217C0.253,0.217 0.256,0.217 0.26,0.217L0.26,0.219" style="fill:rgb(160,128,50);fill-rule:nonzero;"/>
            </g>
            <g transform="matrix(108.426,0,0,74.232,22.176,47.5986)">
                <path d="M0.314,0.338C0.316,0.337 0.319,0.337 0.32,0.336C0.322,0.335 0.323,0.333 0.324,0.332C0.325,0.331 0.325,0.329 0.326,0.328C0.326,0.327 0.326,0.325 0.326,0.324L0.326,0.238C0.326,0.236 0.326,0.233 0.326,0.231C0.326,0.229 0.325,0.227 0.324,0.226C0.323,0.225 0.322,0.223 0.32,0.223C0.319,0.222 0.317,0.221 0.314,0.221L0.314,0.218C0.316,0.219 0.318,0.219 0.32,0.219C0.322,0.219 0.325,0.219 0.327,0.219C0.33,0.219 0.332,0.219 0.335,0.219L0.351,0.217C0.353,0.217 0.356,0.217 0.359,0.217C0.366,0.217 0.372,0.218 0.378,0.221C0.384,0.224 0.389,0.229 0.394,0.234C0.398,0.24 0.402,0.247 0.404,0.255C0.407,0.263 0.408,0.272 0.408,0.283C0.408,0.293 0.407,0.301 0.405,0.309C0.402,0.316 0.399,0.322 0.394,0.326C0.39,0.331 0.385,0.334 0.38,0.336C0.374,0.339 0.369,0.34 0.363,0.34L0.33,0.339C0.328,0.339 0.325,0.339 0.322,0.339C0.319,0.34 0.316,0.34 0.314,0.34L0.314,0.338ZM0.337,0.325C0.34,0.329 0.343,0.331 0.347,0.333C0.35,0.334 0.354,0.335 0.357,0.335C0.37,0.335 0.38,0.33 0.386,0.321C0.392,0.311 0.395,0.297 0.395,0.278C0.395,0.27 0.394,0.263 0.392,0.256C0.39,0.249 0.387,0.243 0.383,0.238C0.38,0.233 0.376,0.228 0.371,0.226C0.366,0.223 0.361,0.221 0.355,0.221C0.352,0.221 0.349,0.222 0.346,0.222C0.344,0.223 0.341,0.225 0.338,0.226C0.338,0.233 0.338,0.239 0.338,0.245C0.337,0.252 0.337,0.258 0.337,0.265L0.337,0.325" style="fill:rgb(160,128,50);fill-rule:nonzero;"/>
            </g>
            <g transform="matrix(108.426,0,0,74.232,22.176,47.7174)">
                <path d="M0.456,0.33C0.457,0.331 0.459,0.331 0.462,0.332C0.465,0.332 0.467,0.333 0.47,0.333C0.475,0.333 0.479,0.332 0.483,0.331C0.487,0.33 0.491,0.328 0.494,0.325C0.498,0.322 0.501,0.319 0.504,0.315C0.506,0.31 0.509,0.305 0.513,0.3L0.514,0.301L0.502,0.338C0.501,0.338 0.5,0.338 0.498,0.338C0.497,0.338 0.495,0.338 0.494,0.338L0.446,0.338C0.444,0.338 0.441,0.338 0.439,0.338C0.436,0.338 0.434,0.338 0.431,0.338L0.431,0.336C0.434,0.336 0.437,0.335 0.439,0.334C0.44,0.333 0.441,0.332 0.442,0.329C0.443,0.327 0.444,0.325 0.444,0.321C0.444,0.318 0.444,0.314 0.444,0.308L0.444,0.247C0.444,0.242 0.444,0.237 0.444,0.234C0.444,0.231 0.443,0.228 0.442,0.226C0.441,0.224 0.44,0.222 0.438,0.221C0.437,0.22 0.434,0.22 0.431,0.219L0.431,0.217L0.456,0.218C0.459,0.218 0.463,0.218 0.466,0.218C0.472,0.218 0.478,0.218 0.484,0.217C0.49,0.217 0.496,0.217 0.502,0.217C0.502,0.22 0.502,0.223 0.502,0.225L0.502,0.232L0.503,0.25L0.501,0.25C0.5,0.245 0.498,0.24 0.497,0.236C0.495,0.232 0.493,0.229 0.49,0.227C0.488,0.225 0.485,0.224 0.482,0.223C0.48,0.222 0.477,0.222 0.473,0.222C0.468,0.222 0.462,0.222 0.456,0.223L0.456,0.269C0.457,0.269 0.459,0.269 0.461,0.269C0.462,0.269 0.464,0.269 0.465,0.269C0.471,0.269 0.476,0.267 0.479,0.263C0.483,0.26 0.485,0.254 0.485,0.245L0.487,0.245L0.487,0.271L0.487,0.298L0.485,0.298C0.485,0.293 0.484,0.289 0.483,0.285C0.482,0.282 0.48,0.28 0.479,0.278C0.477,0.276 0.475,0.275 0.472,0.274C0.47,0.274 0.467,0.273 0.464,0.273L0.456,0.273L0.456,0.33" style="fill:rgb(160,128,50);fill-rule:nonzero;"/>
            </g>
            <g transform="matrix(108.426,0,0,74.232,22.176,47.6357)">
                <path d="M0.619,0.339L0.596,0.339C0.591,0.33 0.586,0.322 0.581,0.313C0.577,0.304 0.573,0.294 0.569,0.284C0.569,0.284 0.568,0.284 0.566,0.284L0.558,0.282C0.557,0.281 0.556,0.281 0.555,0.281L0.555,0.31C0.555,0.315 0.555,0.319 0.555,0.322C0.556,0.326 0.556,0.328 0.557,0.331C0.558,0.333 0.559,0.334 0.561,0.335C0.563,0.336 0.565,0.337 0.568,0.337L0.568,0.339C0.565,0.339 0.562,0.339 0.559,0.339C0.555,0.339 0.552,0.339 0.549,0.339C0.546,0.339 0.543,0.339 0.54,0.339C0.537,0.339 0.534,0.339 0.531,0.339L0.531,0.337C0.534,0.337 0.536,0.336 0.538,0.335C0.539,0.334 0.541,0.333 0.542,0.331C0.543,0.328 0.543,0.326 0.543,0.322C0.543,0.319 0.544,0.315 0.544,0.31L0.544,0.248C0.544,0.243 0.543,0.238 0.543,0.235C0.543,0.232 0.543,0.229 0.542,0.227C0.541,0.225 0.539,0.223 0.538,0.222C0.536,0.221 0.534,0.221 0.531,0.22L0.531,0.218C0.533,0.218 0.536,0.218 0.539,0.219C0.541,0.219 0.544,0.219 0.547,0.219L0.563,0.217C0.565,0.217 0.567,0.217 0.568,0.217C0.572,0.217 0.576,0.218 0.58,0.219C0.583,0.22 0.587,0.222 0.59,0.225C0.593,0.228 0.595,0.232 0.597,0.237C0.599,0.241 0.6,0.247 0.6,0.253C0.6,0.257 0.599,0.261 0.598,0.264C0.597,0.268 0.596,0.27 0.594,0.273C0.592,0.275 0.59,0.277 0.588,0.279C0.586,0.281 0.583,0.282 0.58,0.283C0.582,0.287 0.584,0.292 0.587,0.298C0.59,0.304 0.593,0.31 0.596,0.315C0.6,0.321 0.603,0.325 0.607,0.33C0.611,0.334 0.615,0.336 0.619,0.337L0.619,0.339ZM0.555,0.274C0.557,0.275 0.559,0.276 0.561,0.277C0.563,0.277 0.565,0.278 0.567,0.278C0.573,0.278 0.578,0.275 0.582,0.271C0.586,0.266 0.587,0.259 0.587,0.249C0.587,0.245 0.587,0.242 0.586,0.238C0.585,0.235 0.583,0.232 0.581,0.23C0.58,0.227 0.578,0.226 0.575,0.224C0.573,0.223 0.57,0.222 0.568,0.222C0.565,0.222 0.563,0.223 0.561,0.223C0.559,0.223 0.557,0.224 0.555,0.225C0.555,0.23 0.555,0.236 0.555,0.242L0.555,0.274" style="fill:rgb(160,128,50);fill-rule:nonzero;"/>
            </g>
            <g transform="matrix(108.426,0,0,74.232,22.176,47.8287)">
                <path d="M0.632,0.215C0.635,0.216 0.637,0.216 0.64,0.216C0.643,0.216 0.646,0.216 0.649,0.216L0.66,0.215C0.661,0.218 0.663,0.221 0.666,0.226L0.695,0.279C0.699,0.285 0.702,0.29 0.705,0.296C0.708,0.301 0.71,0.306 0.712,0.309L0.712,0.309L0.712,0.287L0.712,0.266C0.712,0.258 0.712,0.251 0.712,0.245C0.711,0.239 0.711,0.234 0.709,0.23C0.708,0.226 0.707,0.223 0.705,0.221C0.703,0.219 0.7,0.218 0.696,0.218L0.696,0.215C0.699,0.216 0.702,0.216 0.705,0.216C0.708,0.216 0.711,0.216 0.714,0.216C0.717,0.216 0.72,0.216 0.722,0.216C0.725,0.216 0.728,0.216 0.731,0.215L0.731,0.218C0.728,0.218 0.726,0.219 0.724,0.22C0.722,0.221 0.721,0.223 0.72,0.224C0.719,0.226 0.718,0.228 0.717,0.231C0.717,0.234 0.717,0.237 0.717,0.241L0.717,0.338L0.712,0.338C0.708,0.328 0.703,0.317 0.697,0.307C0.692,0.297 0.687,0.288 0.682,0.279C0.677,0.27 0.672,0.262 0.667,0.254C0.662,0.246 0.658,0.239 0.655,0.233C0.654,0.237 0.654,0.24 0.654,0.243L0.654,0.285C0.654,0.295 0.654,0.304 0.655,0.31C0.655,0.317 0.656,0.322 0.657,0.325C0.658,0.328 0.66,0.331 0.662,0.332C0.664,0.333 0.667,0.334 0.671,0.335L0.671,0.337C0.667,0.337 0.663,0.336 0.659,0.336C0.654,0.336 0.65,0.336 0.646,0.336C0.644,0.336 0.641,0.336 0.639,0.336C0.636,0.336 0.634,0.337 0.632,0.337L0.632,0.335C0.635,0.334 0.637,0.333 0.639,0.333C0.641,0.332 0.643,0.331 0.645,0.33C0.646,0.329 0.647,0.327 0.648,0.324C0.648,0.322 0.649,0.319 0.649,0.314L0.65,0.23C0.648,0.227 0.645,0.224 0.642,0.222C0.638,0.22 0.635,0.219 0.632,0.218L0.632,0.215" style="fill:rgb(160,128,50);fill-rule:nonzero;"/>
            </g>
            <g transform="matrix(108.426,0,0,74.232,22.176,47.7174)">
                <path d="M0.774,0.33C0.776,0.331 0.778,0.331 0.781,0.332C0.783,0.332 0.786,0.333 0.788,0.333C0.793,0.333 0.798,0.332 0.802,0.331C0.806,0.33 0.81,0.328 0.813,0.325C0.816,0.322 0.819,0.319 0.822,0.315C0.825,0.31 0.828,0.305 0.831,0.3L0.833,0.301L0.821,0.338C0.82,0.338 0.818,0.338 0.817,0.338C0.815,0.338 0.814,0.338 0.812,0.338L0.765,0.338C0.762,0.338 0.76,0.338 0.757,0.338C0.755,0.338 0.753,0.338 0.75,0.338L0.75,0.336C0.753,0.336 0.755,0.335 0.757,0.334C0.759,0.333 0.76,0.332 0.761,0.329C0.762,0.327 0.762,0.325 0.763,0.321C0.763,0.318 0.763,0.314 0.763,0.308L0.763,0.247C0.763,0.242 0.763,0.237 0.763,0.234C0.762,0.231 0.762,0.228 0.761,0.226C0.76,0.224 0.759,0.222 0.757,0.221C0.755,0.22 0.753,0.22 0.75,0.219L0.75,0.217L0.775,0.218C0.778,0.218 0.781,0.218 0.785,0.218C0.791,0.218 0.797,0.218 0.803,0.217C0.809,0.217 0.815,0.217 0.821,0.217C0.821,0.22 0.821,0.223 0.821,0.225L0.821,0.232L0.821,0.25L0.82,0.25C0.819,0.245 0.817,0.24 0.815,0.236C0.814,0.232 0.811,0.229 0.809,0.227C0.807,0.225 0.804,0.224 0.801,0.223C0.798,0.222 0.795,0.222 0.792,0.222C0.786,0.222 0.78,0.222 0.774,0.223L0.774,0.269C0.776,0.269 0.778,0.269 0.779,0.269C0.781,0.269 0.782,0.269 0.784,0.269C0.79,0.269 0.794,0.267 0.798,0.263C0.801,0.26 0.803,0.254 0.804,0.245L0.806,0.245L0.805,0.271L0.806,0.298L0.804,0.298C0.803,0.293 0.803,0.289 0.801,0.285C0.8,0.282 0.799,0.28 0.797,0.278C0.795,0.276 0.793,0.275 0.791,0.274C0.789,0.274 0.786,0.273 0.782,0.273L0.774,0.273L0.774,0.33" style="fill:rgb(160,128,50);fill-rule:nonzero;"/>
            </g>
            <g transform="matrix(108.426,0,0,74.232,22.176,47.7322)">
                <path d="M0.907,0.252C0.906,0.248 0.904,0.244 0.902,0.24C0.901,0.236 0.899,0.233 0.896,0.23C0.894,0.227 0.891,0.224 0.889,0.223C0.886,0.221 0.883,0.22 0.88,0.22C0.875,0.22 0.871,0.221 0.868,0.224C0.865,0.226 0.863,0.231 0.863,0.237C0.863,0.243 0.865,0.247 0.867,0.25C0.869,0.254 0.872,0.257 0.876,0.26C0.88,0.262 0.884,0.265 0.888,0.267C0.892,0.269 0.896,0.272 0.9,0.276C0.903,0.279 0.906,0.283 0.909,0.288C0.911,0.293 0.912,0.299 0.912,0.306C0.912,0.312 0.912,0.318 0.91,0.322C0.909,0.326 0.907,0.33 0.904,0.333C0.901,0.336 0.898,0.338 0.895,0.339C0.892,0.34 0.888,0.341 0.884,0.341C0.882,0.341 0.88,0.341 0.878,0.34L0.865,0.336C0.864,0.336 0.862,0.336 0.861,0.336C0.86,0.336 0.859,0.336 0.859,0.336C0.858,0.337 0.857,0.337 0.856,0.338C0.855,0.331 0.854,0.324 0.853,0.317C0.852,0.31 0.851,0.303 0.85,0.297L0.852,0.295C0.853,0.299 0.855,0.304 0.857,0.309C0.859,0.313 0.862,0.318 0.864,0.322C0.867,0.325 0.87,0.329 0.873,0.331C0.877,0.334 0.88,0.335 0.884,0.335C0.886,0.335 0.889,0.335 0.891,0.334C0.893,0.333 0.895,0.332 0.897,0.33C0.899,0.328 0.9,0.326 0.901,0.323C0.902,0.321 0.903,0.317 0.903,0.313C0.903,0.307 0.901,0.302 0.899,0.299C0.896,0.295 0.893,0.291 0.89,0.289C0.886,0.286 0.882,0.283 0.878,0.281C0.874,0.278 0.87,0.275 0.866,0.272C0.863,0.269 0.86,0.266 0.857,0.261C0.855,0.257 0.853,0.252 0.853,0.245C0.853,0.241 0.854,0.236 0.855,0.232C0.857,0.228 0.858,0.225 0.86,0.222C0.863,0.22 0.865,0.217 0.868,0.216C0.871,0.214 0.874,0.214 0.877,0.214C0.88,0.214 0.883,0.214 0.885,0.215L0.9,0.219C0.902,0.22 0.905,0.22 0.907,0.22C0.907,0.225 0.907,0.231 0.908,0.236C0.908,0.241 0.908,0.247 0.908,0.252L0.907,0.252" style="fill:rgb(160,128,50);fill-rule:nonzero;"/>
            </g>
            <g transform="matrix(108.426,0,0,74.232,22.176,47.7322)">
                <path d="M0.994,0.252C0.993,0.248 0.992,0.244 0.99,0.24C0.988,0.236 0.986,0.233 0.984,0.23C0.982,0.227 0.979,0.224 0.976,0.223C0.973,0.221 0.97,0.22 0.967,0.22C0.962,0.22 0.959,0.221 0.956,0.224C0.952,0.226 0.951,0.231 0.951,0.237C0.951,0.243 0.952,0.247 0.955,0.25C0.957,0.254 0.96,0.257 0.964,0.26C0.967,0.262 0.971,0.265 0.975,0.267C0.98,0.269 0.984,0.272 0.987,0.276C0.991,0.279 0.994,0.283 0.996,0.288C0.999,0.293 1,0.299 1,0.306C1,0.312 0.999,0.318 0.998,0.322C0.996,0.326 0.994,0.33 0.992,0.333C0.989,0.336 0.986,0.338 0.983,0.339C0.979,0.34 0.975,0.341 0.972,0.341C0.97,0.341 0.967,0.341 0.965,0.34L0.953,0.336C0.951,0.336 0.95,0.336 0.949,0.336C0.948,0.336 0.947,0.336 0.946,0.336C0.945,0.337 0.944,0.337 0.943,0.338C0.943,0.331 0.942,0.324 0.941,0.317C0.94,0.31 0.939,0.303 0.938,0.297L0.939,0.295C0.941,0.299 0.943,0.304 0.945,0.309C0.947,0.313 0.949,0.318 0.952,0.322C0.955,0.325 0.958,0.329 0.961,0.331C0.964,0.334 0.968,0.335 0.971,0.335C0.974,0.335 0.976,0.335 0.978,0.334C0.981,0.333 0.983,0.332 0.984,0.33C0.986,0.328 0.988,0.326 0.989,0.323C0.99,0.321 0.99,0.317 0.99,0.313C0.99,0.307 0.989,0.302 0.986,0.299C0.984,0.295 0.981,0.291 0.977,0.289C0.974,0.286 0.97,0.283 0.965,0.281C0.961,0.278 0.957,0.275 0.954,0.272C0.95,0.269 0.947,0.266 0.945,0.261C0.942,0.257 0.941,0.252 0.941,0.245C0.941,0.241 0.942,0.236 0.943,0.232C0.944,0.228 0.946,0.225 0.948,0.222C0.95,0.22 0.953,0.217 0.956,0.216C0.958,0.214 0.961,0.214 0.964,0.214C0.968,0.214 0.97,0.214 0.973,0.215L0.987,0.219C0.99,0.22 0.992,0.22 0.995,0.22C0.995,0.225 0.995,0.231 0.995,0.236C0.995,0.241 0.995,0.247 0.996,0.252L0.994,0.252" style="fill:rgb(160,128,50);fill-rule:nonzero;"/>
            </g>
            <g transform="matrix(108.426,0,0,74.232,22.176,20.7711)">
                <path d="M0.25,0.459L0.758,0.459" style="fill:none;fill-rule:nonzero;stroke:rgb(160,128,50);stroke-width:0.01px;"/>
            </g>
            <g transform="matrix(108.426,0,0,74.232,22.176,78.0263)">
                <path d="M0.388,0.049C0.386,0.044 0.384,0.038 0.382,0.033C0.38,0.028 0.378,0.024 0.375,0.02C0.372,0.016 0.369,0.013 0.365,0.01C0.362,0.008 0.358,0.006 0.353,0.006C0.347,0.006 0.342,0.008 0.338,0.012C0.334,0.016 0.33,0.022 0.327,0.028C0.324,0.034 0.322,0.042 0.32,0.05C0.319,0.057 0.318,0.065 0.318,0.073C0.318,0.082 0.319,0.091 0.32,0.099C0.322,0.107 0.324,0.114 0.327,0.12C0.33,0.126 0.334,0.131 0.338,0.134C0.342,0.138 0.347,0.139 0.353,0.139C0.358,0.139 0.362,0.139 0.367,0.137C0.371,0.136 0.375,0.133 0.379,0.129L0.379,0.102C0.379,0.092 0.374,0.087 0.364,0.086L0.364,0.084L0.385,0.085C0.389,0.085 0.392,0.085 0.396,0.084C0.399,0.084 0.403,0.084 0.407,0.084L0.407,0.086C0.405,0.087 0.403,0.087 0.401,0.088C0.399,0.088 0.398,0.089 0.396,0.09C0.395,0.092 0.394,0.093 0.394,0.096C0.393,0.098 0.392,0.101 0.392,0.104L0.392,0.134C0.386,0.137 0.379,0.14 0.373,0.143C0.366,0.146 0.36,0.147 0.354,0.147C0.347,0.147 0.341,0.145 0.334,0.142C0.328,0.139 0.323,0.134 0.318,0.128C0.313,0.122 0.309,0.114 0.306,0.105C0.303,0.096 0.301,0.085 0.301,0.073C0.301,0.063 0.303,0.053 0.306,0.044C0.309,0.035 0.313,0.028 0.318,0.021C0.323,0.015 0.328,0.009 0.334,0.006C0.34,0.002 0.347,0 0.353,0C0.357,0 0.361,0 0.364,0.001C0.367,0.001 0.37,0.002 0.373,0.003C0.376,0.003 0.378,0.004 0.38,0.005C0.382,0.006 0.384,0.007 0.386,0.008C0.386,0.01 0.386,0.013 0.387,0.017L0.389,0.04C0.389,0.044 0.389,0.047 0.39,0.049L0.388,0.049" style="fill:rgb(160,128,50);fill-rule:nonzero;"/>
            </g>
            <g transform="matrix(108.426,0,0,74.232,22.176,79.1769)">
                <path d="M0.445,0.074L0.436,0.107C0.436,0.108 0.436,0.109 0.436,0.11C0.436,0.11 0.435,0.111 0.435,0.112C0.435,0.114 0.436,0.116 0.437,0.118C0.438,0.119 0.439,0.121 0.44,0.122C0.441,0.123 0.443,0.124 0.444,0.124C0.445,0.125 0.446,0.125 0.447,0.126L0.447,0.128C0.445,0.128 0.442,0.128 0.44,0.127L0.425,0.127C0.422,0.128 0.42,0.128 0.417,0.128L0.417,0.126C0.42,0.125 0.422,0.123 0.424,0.122C0.425,0.12 0.427,0.118 0.428,0.115C0.429,0.113 0.43,0.11 0.431,0.107C0.432,0.104 0.433,0.101 0.434,0.098L0.455,0.02C0.456,0.019 0.456,0.018 0.456,0.017C0.456,0.016 0.456,0.016 0.456,0.015C0.456,0.015 0.456,0.014 0.456,0.012C0.456,0.011 0.455,0.01 0.455,0.009C0.457,0.008 0.459,0.008 0.461,0.007C0.462,0.006 0.464,0.005 0.466,0.004L0.492,0.109C0.493,0.114 0.495,0.118 0.497,0.12C0.499,0.123 0.502,0.125 0.506,0.126L0.506,0.128C0.503,0.128 0.5,0.128 0.496,0.127L0.476,0.127L0.468,0.128L0.468,0.126C0.472,0.125 0.475,0.124 0.477,0.122C0.479,0.12 0.481,0.117 0.481,0.113C0.481,0.112 0.48,0.111 0.48,0.11C0.48,0.109 0.48,0.109 0.479,0.108L0.471,0.074L0.445,0.074ZM0.458,0.021L0.446,0.068L0.47,0.068L0.458,0.021" style="fill:rgb(160,128,50);fill-rule:nonzero;"/>
            </g>
            <g transform="matrix(108.426,0,0,74.232,22.176,79.407)">
                <path d="M0.536,0.123C0.539,0.122 0.542,0.122 0.543,0.121C0.545,0.12 0.546,0.118 0.547,0.116C0.548,0.114 0.549,0.111 0.549,0.108C0.549,0.104 0.549,0.1 0.549,0.095L0.549,0.009C0.545,0.009 0.541,0.01 0.538,0.01C0.535,0.011 0.532,0.012 0.53,0.014C0.528,0.016 0.526,0.019 0.524,0.023C0.523,0.027 0.521,0.033 0.52,0.04L0.518,0.04L0.52,0.004C0.523,0.004 0.527,0.004 0.53,0.004C0.534,0.004 0.537,0.004 0.541,0.004L0.57,0.004C0.574,0.004 0.577,0.004 0.58,0.004C0.584,0.004 0.587,0.004 0.59,0.004L0.592,0.04L0.59,0.04C0.589,0.033 0.587,0.027 0.586,0.023C0.584,0.019 0.582,0.016 0.58,0.014C0.578,0.012 0.575,0.011 0.572,0.01C0.569,0.01 0.565,0.009 0.561,0.009L0.561,0.095C0.561,0.1 0.561,0.104 0.561,0.108C0.561,0.111 0.562,0.114 0.563,0.116C0.563,0.118 0.565,0.12 0.567,0.121C0.568,0.122 0.571,0.122 0.574,0.123L0.574,0.125C0.571,0.125 0.568,0.124 0.564,0.124L0.545,0.124C0.542,0.124 0.539,0.125 0.536,0.125L0.536,0.123" style="fill:rgb(160,128,50);fill-rule:nonzero;"/>
            </g>
            <g transform="matrix(108.426,0,0,74.232,22.176,79.3922)">
                <path d="M0.637,0.117C0.639,0.118 0.641,0.118 0.644,0.119C0.647,0.119 0.649,0.119 0.652,0.119C0.657,0.119 0.661,0.119 0.665,0.118C0.669,0.116 0.673,0.114 0.676,0.112C0.679,0.109 0.683,0.106 0.685,0.101C0.688,0.097 0.691,0.092 0.694,0.086L0.696,0.088L0.684,0.125L0.676,0.124L0.628,0.124C0.626,0.124 0.623,0.124 0.621,0.124C0.618,0.125 0.616,0.125 0.613,0.125L0.613,0.123C0.616,0.122 0.619,0.122 0.62,0.121C0.622,0.12 0.623,0.118 0.624,0.116C0.625,0.114 0.626,0.111 0.626,0.108C0.626,0.105 0.626,0.1 0.626,0.095L0.626,0.034C0.626,0.028 0.626,0.024 0.626,0.021C0.626,0.017 0.625,0.014 0.624,0.012C0.623,0.01 0.622,0.009 0.62,0.008C0.618,0.007 0.616,0.006 0.613,0.006L0.613,0.004L0.638,0.004C0.641,0.004 0.645,0.004 0.648,0.004C0.654,0.004 0.66,0.004 0.666,0.004C0.672,0.004 0.678,0.004 0.684,0.004L0.684,0.019C0.684,0.022 0.684,0.024 0.684,0.027C0.684,0.03 0.684,0.033 0.684,0.036L0.683,0.037C0.682,0.031 0.68,0.026 0.678,0.023C0.677,0.019 0.675,0.016 0.672,0.014C0.67,0.012 0.667,0.01 0.664,0.01C0.661,0.009 0.658,0.008 0.655,0.008C0.649,0.008 0.644,0.009 0.637,0.01L0.637,0.056C0.639,0.056 0.641,0.055 0.642,0.055C0.644,0.055 0.646,0.055 0.647,0.055C0.653,0.055 0.658,0.053 0.661,0.05C0.664,0.047 0.667,0.041 0.667,0.032L0.669,0.032L0.669,0.058L0.669,0.085L0.667,0.085C0.667,0.079 0.666,0.075 0.665,0.072C0.664,0.069 0.662,0.066 0.66,0.065C0.659,0.063 0.657,0.062 0.654,0.061C0.652,0.06 0.649,0.06 0.646,0.06L0.637,0.06L0.637,0.117" style="fill:rgb(160,128,50);fill-rule:nonzero;"/>
            </g>
        </g>
    </g>
</svg>
